<svg xmlns="http://www.w3.org/2000/svg" width="64" height="64" fill="none"><path fill="#0040C1" fill-rule="evenodd" d="M13.148 37.523a2.76 2.76 0 0 1 0 3.92l-.056.055a2.799 2.799 0 0 1-3.942 0 2.76 2.76 0 0 1 0-3.92l.056-.055a2.799 2.799 0 0 1 3.942 0Z" clip-rule="evenodd" opacity=".8"/><path fill="#0040C1" fill-rule="evenodd" d="M26.253 38.358a2.76 2.76 0 0 1-.007 3.919l-7.722 7.649a2.799 2.799 0 0 1-3.942-.007 2.76 2.76 0 0 1 .007-3.92l7.722-7.648a2.799 2.799 0 0 1 3.942.007Z" clip-rule="evenodd" opacity=".9"/><path fill="#0040C1" fill-rule="evenodd" d="M36.734 51.525a2.797 2.797 0 0 1 3.866-.768l.167.11a2.762 2.762 0 0 1 .773 3.844 2.797 2.797 0 0 1-3.866.768l-.167-.11a2.762 2.762 0 0 1-.773-3.844Z" clip-rule="evenodd" opacity=".8"/><path fill="#0040C1" fill-rule="evenodd" d="M55.128 37.357a2.76 2.76 0 0 1 0 3.92l-3.791 3.768a2.799 2.799 0 0 1-3.942 0 2.76 2.76 0 0 1 0-3.919l3.79-3.769a2.799 2.799 0 0 1 3.943 0Z" clip-rule="evenodd" opacity=".9"/><path fill="#0040C1" fill-rule="evenodd" d="M55.183 23.417a2.76 2.76 0 0 1 0 3.92L27.169 55.188a2.799 2.799 0 0 1-3.942 0 2.76 2.76 0 0 1 0-3.92L51.24 23.417a2.799 2.799 0 0 1 3.943 0Zm-5.295-8.564a2.76 2.76 0 0 1 0 3.92L33.776 34.79a2.799 2.799 0 0 1-3.942 0 2.76 2.76 0 0 1 0-3.92l16.112-16.018a2.799 2.799 0 0 1 3.942 0ZM41.384 9.42a2.76 2.76 0 0 1 .003 3.92L20.676 33.959a2.799 2.799 0 0 1-3.942.002 2.76 2.76 0 0 1-.003-3.92l20.71-20.618a2.799 2.799 0 0 1 3.943-.003Z" clip-rule="evenodd"/><path fill="#0040C1" fill-rule="evenodd" d="M20.873 16.02a2.76 2.76 0 0 1-.006 3.92l-8.112 8.037a2.799 2.799 0 0 1-3.942-.007 2.76 2.76 0 0 1 .007-3.92l8.111-8.036a2.799 2.799 0 0 1 3.942.006Z" clip-rule="evenodd" opacity=".9"/><path fill="#0040C1" fill-rule="evenodd" d="M25.84 8a2.78 2.78 0 0 1 2.788 2.771v.277a2.78 2.78 0 0 1-2.788 2.772 2.78 2.78 0 0 1-2.787-2.771v-.278A2.78 2.78 0 0 1 25.84 8Z" clip-rule="evenodd" opacity=".8"/></svg>