<svg xmlns="http://www.w3.org/2000/svg" width="64" height="64" fill="none"><path fill="#0040C1" d="M24.121 27.036c6.285-3.006 11.204-8.106 14.027-14.482-1.822-1.913-4.19-3.279-6.74-4.099L30.042 8c-.091.182-.182.455-.182.638-2.186 6.193-6.65 11.203-12.66 14.026-4.19 2.004-7.287 5.647-8.745 10.02L8 34.048c.182.091.455.182.638.182a29.13 29.13 0 0 1 5.1 2.46c2.277-4.099 5.92-7.56 10.383-9.655Zm26.415.364c-3.37 5.101-8.015 9.2-13.754 11.932-4.645 2.186-8.197 6.285-9.836 11.203l-.456 1.549c1.73 1.548 3.826 2.732 6.103 3.46l1.366.456c.091-.182.182-.455.182-.638 2.186-6.193 6.649-11.203 12.66-14.026 4.19-2.004 7.378-5.647 8.744-10.02l.456-1.365c-1.913-.547-3.735-1.458-5.465-2.55ZM22.847 47.347c2.277-5.465 6.466-9.928 11.84-12.478 4.919-2.368 9.017-6.011 11.84-10.474-2.094-2.004-3.825-4.281-5.1-7.014-3.37 6.194-8.652 11.203-15.12 14.3-3.734 1.73-6.74 4.736-8.56 8.38 2.003 1.912 3.642 4.28 4.918 6.922l.182.364Z"/></svg>