<svg xmlns="http://www.w3.org/2000/svg" width="64" height="64" fill="none"><path fill="#0040C1" d="M37.748 10.315 33.143 9.08l-3.88 14.481-3.503-13.074-4.605 1.234 3.785 14.126-9.427-9.428-3.371 3.37 10.34 10.342-12.877-3.45-1.234 4.604 14.07 3.77a9.534 9.534 0 0 1 9.288-11.697 9.534 9.534 0 0 1 9.291 11.683l12.788 3.427 1.233-4.605-14.126-3.785 12.878-3.45-1.233-4.605-14.126 3.785 9.427-9.428-3.37-3.37-10.198 10.197 3.455-12.893Z"/><path fill="#0040C1" d="M41.007 35.096a9.516 9.516 0 0 1-2.372 4.37l9.264 9.264 3.37-3.37-10.262-10.264Zm-2.466 4.467a9.527 9.527 0 0 1-4.26 2.518l3.371 12.581 4.605-1.234-3.716-13.865Zm-4.431 2.564c-.762.196-1.56.3-2.381.3-.881 0-1.734-.12-2.543-.343L25.81 54.676l4.605 1.234 3.693-13.783Zm-5.087-.089a9.532 9.532 0 0 1-4.186-2.556l-9.287 9.287 3.371 3.37 10.102-10.101ZM24.76 39.4a9.513 9.513 0 0 1-2.312-4.316L9.62 38.522l1.234 4.604L24.76 39.4Z"/></svg>