<svg xmlns="http://www.w3.org/2000/svg" width="64" height="64" fill="none"><path fill="#0040C1" fill-rule="evenodd" d="M32.836 9.58a4.146 4.146 0 0 0-1.67 0c-.637.13-1.207.45-1.659.703l-.123.069-15.338 8.52-.13.073c-.48.264-1.082.596-1.545 1.098-.4.434-.702.948-.888 1.508-.214.648-.211 1.336-.21 1.883l.001.15v16.973c-.002.547-.005 1.234.21 1.883a4.14 4.14 0 0 0 .887 1.508c.463.502 1.065.834 1.544 1.098l.131.072 15.338 8.521.123.069c.452.253 1.022.572 1.659.703a4.12 4.12 0 0 0 1.67 0c.637-.13 1.206-.45 1.658-.703l.124-.069 15.337-8.52.057-.032.074-.041c.48-.264 1.082-.596 1.544-1.098.4-.434.703-.948.888-1.508.214-.648.212-1.336.21-1.883V23.434c.002-.547.004-1.235-.21-1.883a4.143 4.143 0 0 0-.888-1.508c-.462-.502-1.065-.834-1.544-1.098h-.001l-.13-.072-15.337-8.521-.124-.07c-.452-.253-1.021-.571-1.658-.702Zm-1.44 4.396c.315-.175.475-.263.595-.32l.01-.006.01.005c.12.058.28.146.594.32l13.782 7.657L32 29.624l-14.386-7.992 13.782-7.657ZM15.42 25.154l14.509 8.06v15.984L16.06 41.494c-.331-.185-.5-.28-.62-.355l-.01-.007v-.012c-.009-.14-.01-.334-.01-.714V25.155Z" clip-rule="evenodd"/></svg>