<svg xmlns="http://www.w3.org/2000/svg" width="64" height="64" fill="none"><path fill="#0040C1" d="m47.607 17.996-1.414-1.414c-1.415-1.51-2.924-3.018-4.81-3.961-2.169-1.132-4.527-.849-6.884-.849H16.676l3.583 4.81h21.407c1.98 0 3.678.377 5.28 1.414.284.094.567.094.661 0Z" opacity=".8"/><path fill="#0040C1" d="m51.568 25.73-1.414-1.415c-1.415-1.51-2.924-3.018-4.81-3.961-2.169-1.132-4.526-.849-6.884-.849H22.617l3.584 4.81h19.52c1.98 0 3.678.377 5.281 1.414a.601.601 0 0 0 .566 0Z" opacity=".9"/><path fill="#0040C1" d="m56 33.273-1.415-1.414c-1.414-1.51-2.923-3.018-4.81-3.961-2.168-1.132-4.526-.849-6.883-.849H28.369l3.584 4.81h18.106c1.98 0 3.678.377 5.28 1.414.284.094.472.189.66 0Z"/><path fill="#0040C1" d="m16.299 46.004 1.414 1.414c1.415 1.51 2.924 3.018 4.81 3.961 2.169 1.132 4.526.849 6.884.849H47.23l-3.583-4.81H22.24c-1.98 0-3.678-.377-5.281-1.414-.283-.094-.472-.094-.66 0Z" opacity=".8"/><path fill="#0040C1" d="m12.338 38.271 1.414 1.415c1.415 1.509 2.924 3.017 4.81 3.96 2.169 1.132 4.526.85 6.884.85h15.843l-3.584-4.81h-19.52c-1.98 0-3.678-.377-5.281-1.415a.601.601 0 0 0-.566 0Z" opacity=".9"/><path fill="#0040C1" d="m8 30.633 1.415 1.414c1.414 1.509 2.923 3.018 4.809 3.96 2.169 1.132 4.526.85 6.884.85h14.523l-3.584-4.81H13.941c-1.98 0-3.678-.377-5.28-1.414-.284-.095-.472-.095-.661 0Z"/></svg>