<svg xmlns="http://www.w3.org/2000/svg" width="64" height="64" fill="none"><path fill="#0040C1" d="M36.146 44.859c-3.818-1.418-7.745-1.636-11.345-.655-2.51.655-4.91 1.964-7.091 3.6l-1.527 1.31-.437.436.982.873c.109 0 .109.109.218.218.218.218.436.327.764.545l.654.437.655-.546c.109-.109.327-.327.545-.436 1.964-1.637 4.146-2.727 6.437-3.273 2.945-.764 6.109-.654 9.272.545 2.618.982 7.964 2.182 14.4-.545l.219-.11.327-.326c0-.11.109-.11.218-.218.546-.655 1.09-1.31 1.527-2.073l2.182-3.382-3.49 1.963c-5.128 2.837-9.819 3.382-14.51 1.637ZM21.2 33.077c2.945-.763 6.109-.654 9.272.546 3.491 1.309 12.437 3.163 22.473-5.891l1.636-1.636.11-.11.436-.436-.218-.545c-.11-.437-.328-.982-.546-1.528l-.545-1.527-1.091 1.091c-.11.218-.327.327-.546.545-4.8 4.91-12.218 9.928-20.727 6.873-3.818-1.418-7.745-1.636-11.345-.654-3.491.982-6.546 2.836-9.382 5.454v-.109L9.09 36.895c0 .11-.109.11-.218.219l-.327.327.109.436c.11.546.327 1.091.436 1.637l.655 1.745 1.09-1.418c.11-.218.328-.327.437-.545 2.291-2.073 5.455-5.019 9.928-6.219Z"/><path fill="#0040C1" d="M10.618 31.114c2.51-2.618 5.346-4.255 8.4-5.128 2.946-.763 6.11-.654 9.273.546 9.818 3.6 18.327-2.29 22.036-5.455l1.419-1.418.545-.436-.436-.655c-.328-.327-.546-.763-.873-1.2l-.655-.872-.763.763-.437.437c-4.582 4.363-11.672 8.836-19.745 5.781-3.818-1.418-7.746-1.636-11.346-.654-2.29.654-4.472 1.745-6.654 3.163L9.09 27.841l-.546.546-.218.218v.327c-.109.764-.109 1.527-.218 2.182L8 33.84l1.855-1.964c.218-.218.436-.545.763-.763ZM39.31 52.277l-.219.655.218-.655c-.327-.109-.545-.218-.873-.327-3.818-1.418-7.745-1.636-11.345-.655-.764.219-1.527.437-2.29.764l-2.62 1.2-.654.327 2.182.764 1.964.655.327.109.327-.11c.328-.108.655-.327.982-.327.218 0 .436-.109.655-.218 2.618-.654 5.454-.654 8.509.327.327.11.545.219.873.328l.545.218.327-.11c.764-.218 1.637-.436 2.291-.763l3.055-1.09-3.164-.764c-.327-.11-.764-.219-1.09-.328ZM56 29.696l-1.637 1.636-.654.655c-4.473 4.254-11.673 8.836-19.746 5.781-3.818-1.418-7.745-1.636-11.345-.654-3.382.982-6.437 2.727-9.164 5.345l-1.418 1.528-.436.545.436.655c.327.436.545.763.764 1.2l.654.981.764-.981.436-.437c2.618-2.836 5.455-4.582 8.727-5.454 2.946-.764 6.11-.655 9.273.545a18.407 18.407 0 0 0 8.4.982c5.018-.546 10.036-3.382 13.746-6.546.218-.218.436-.327.654-.545l.327-.327v-.327c0-.655.11-1.419.11-2.073l.109-2.51Z"/><path fill="#0040C1" d="m14.546 19.66-.327-.655.327.655c.655-.328 1.419-.546 2.073-.764 2.946-.764 6.11-.655 9.273.545 2.073.764 4.145 1.091 6.436 1.091 4.582 0 9.164-1.636 13.418-4.8l1.637-1.309.545-.436-.982-.764a4.848 4.848 0 0 0-1.2-.873l-.654-.436-.546.436c-.218.11-.327.328-.545.437-5.782 4.363-11.564 5.563-17.018 3.49-3.928-1.418-7.855-1.745-11.782-.545-.327.11-.655.218-1.091.328l-.218.109-.327.327c0 .109-.11.109-.219.218-.436.655-.981 1.2-1.418 1.855l-2.073 3.163 3.382-1.745c.546 0 .982-.218 1.31-.327Zm8.944-7.42.328.11c1.418.545 3.6 1.09 6.327 1.09 2.837 0 5.564-.654 8.291-1.745l3.382-1.636-2.29-.764c-.655-.218-1.31-.436-2.073-.545h-.328l-.327.11c-.327.108-.654.326-.982.435-3.273 1.2-6.545 1.419-9.709.546-.327-.11-.654-.218-.982-.327l-.327-.11-.327.11c-.655.218-1.31.436-1.964.763L20 11.368l2.618.764c.218-.11.546 0 .873.109Z"/></svg>